# xmcd CD database file
#
# Track frame offsets:
#	150
#	12342
#	29289
#	40531
#	56622
#	78501
#	94407
#	116468
#	130128
#	144590
#	162283
#	173138
#	186823
#	201359
#	215743
#	233828
#
# Disc length: 3294 seconds
#
# Revision: 0
# Processed by: cddbd v1.5.2PL0 Copyright (c) Steve Scherf et al.
# Submitted via: CDex 1.51
#
DISCID=dc0cdc10
DTITLE=Hot Hazelnuts - Dixie Swing
DYEAR=1900
DGENRE=Jazz
TTITLE0=12th Street Rag
TTITLE1=Sweet Sue
TTITLE2=Hallo kleines Fräulein
TTITLE3=The Preacher
TTITLE4=Livery Stable Blues
TTITLE5=Sweet Georgia Brow
TTITLE6=Stormy Weather
TTITLE7=In der Straße wohnst Du
TTITLE8=At a Georgia Camp Meeting
TTITLE9=I can't give you anyting but Love
TTITLE10=Evening in Paris
TTITLE11=Nagasaki
TTITLE12=Royal Garden Blues
TTITLE13=Laß' mich Dein Badewasser schlürfen
TTITLE14=Tuxedo Junction
TTITLE15=High Society
EXTD=
EXTT0=
EXTT1=
EXTT2=
EXTT3=
EXTT4=
EXTT5=
EXTT6=
EXTT7=
EXTT8=
EXTT9=
EXTT10=
EXTT11=
EXTT12=
EXTT13=
EXTT14=
EXTT15=
PLAYORDER=
